<svg xmlns="http://www.w3.org/2000/svg" width="18" height="14" viewBox="0 0 18 14"><path fill="#b5b5b5" d="M15.768 5.078a.58.58 0 1 0-1.159 0 .58.58 0 0 0 1.16 0zM13.12 7.976a4.139 4.139 0 1 0-8.277 0 4.139 4.139 0 0 0 8.277 0zm2.483-4.967c.91 0 1.656.745 1.656 1.656v7.45a1.66 1.66 0 0 1-1.656 1.655H2.36a1.66 1.66 0 0 1-1.656-1.656v-7.45c0-.91.745-1.655 1.656-1.655h1.986A.736.736 0 0 0 5 2.538L5.514.996a.735.735 0 0 1 .653-.47h5.628c.274 0 .567.212.654.47l.514 1.542c.085.26.38.471.653.471h1.987zm-4.139 4.967a2.484 2.484 0 1 1-4.968-.002 2.484 2.484 0 0 1 4.968.002z"/></svg>