<svg xmlns="http://www.w3.org/2000/svg" width="16" height="15" viewBox="0 0 16 15"><path fill="#fff" d="M7.333 9v4.5H2.91V9zm1.334 0h4.424v4.5H8.667zm5.878-3v1.5H1.455V6zM6.634 3.841a.712.712 0 0 1-1.029 0l-1.028-1.06a.767.767 0 0 1 0-1.061.712.712 0 0 1 1.028 0l1.029 1.06a.767.767 0 0 1 0 1.061zm2.306 0a.767.767 0 0 1 0-1.06L9.97 1.72a.712.712 0 0 1 1.028 0 .767.767 0 0 1 0 1.06L9.97 3.841a.712.712 0 0 1-1.029 0zM12.026.659a2.135 2.135 0 0 0-3.086 0l-1.028 1.06a2.26 2.26 0 0 0-.125.14 2.233 2.233 0 0 0-.125-.14L6.634.66a2.135 2.135 0 0 0-3.086 0 2.3 2.3 0 0 0 0 3.182l.64.659H0V9h1.455v6h13.09V9H16V4.5h-4.613l.639-.659a2.3 2.3 0 0 0 0-3.182z"/></svg>