<svg id="Layer_1" xmlns="http://www.w3.org/2000/svg" viewBox="0 0 411.8 87.2"><style>.st0{fill:#9a9a9a}</style><path class="st0" d="M274.5 53.7c.6-2.2 1.2-4.4 1.8-6.7 1.2-4.8 2.5-9.6 3.7-14.4.2-.8.5-1.1 1.4-1.1 2.8.1 5.6 0 8.4 0 .8 0 1.1.2 1.3 1 1.7 6.6 3.5 13.2 5.2 19.8.1.5.3 1.1.6 1.9.6-3.4 1.2-6.4 1.8-9.5.7-4 1.5-8.1 2.2-12.1.1-.8.4-1.1 1.3-1.1h18c.6-.1 1.2.4 1.4 1 2.3 5.8 4.6 11.7 6.9 17.5.1.2.2.4.4.9.7-1.8 1.3-3.4 1.8-5 1.6-4.4 3.2-8.8 4.8-13.3.2-.8.9-1.3 1.6-1.1 3.1.1 6.3 0 9.7 0-.7 1.6-1.3 3-1.9 4.5-5.9 13.9-11.7 27.7-17.5 41.6-.2.7-.9 1.2-1.7 1.1-2.8-.1-5.6 0-8.4 0-1 0-1.2-.2-.8-1.1 2.2-4.8 4.4-9.7 6.6-14.5.3-.5.3-1.2.1-1.7-4.2-9.6-8.4-19.2-12.6-28.9-.1-.2-.3-.5-.4-.7-.7 2.6-1.3 5-1.9 7.3-2 7.7-3.9 15.3-5.8 23-.3 1-.7 1.3-1.7 1.3-2.8-.1-5.6-.1-8.4 0-.7.2-1.4-.3-1.6-1v-.2c-1.7-6.3-3.4-12.6-5.1-19-.1-.3-.2-.5-.3-.9L282 53.9c-.8 2.8-1.5 5.6-2.3 8.4-.2.8-.5 1.1-1.4 1.1-3-.1-6 0-9 0-.5.1-1.1-.2-1.2-.8v-.2c-2.5-10-5.1-20-7.7-30-.2-.7-.1-1 .7-1h8c.6 0 .9.2 1 .8 1.2 6.9 2.5 13.7 3.8 20.6.2.4.1.7.6.9zM121.2 36.2c4.2-6.9 16.6-6.8 20.5 1.3.6-.8 1.2-1.6 1.9-2.3 4.5-5.1 13.2-5.1 17.8-.9 2.1 2 3.5 4.8 3.7 7.7.5 4.2.1 8.4.2 12.6.1 2.6 0 5.3 0 7.9 0 .8-.2 1-1 1h-7.8c-.9 0-1.1-.3-1.1-1.1V46.2c0-4.8-3.4-7.4-8.1-6.2-2.5.8-4.3 3.1-4.2 5.8-.1 5.4-.1 10.9 0 16.3 0 1.1-.3 1.4-1.4 1.4-2.4-.1-4.8-.1-7.2 0-1.1 0-1.3-.3-1.3-1.3V46.7c0-1.1-.1-2.2-.4-3.2-.9-2.7-3.7-4.3-6.5-3.7-3 .2-5.3 2.8-5.3 5.8-.1 5.5-.1 11 0 16.6 0 1.1-.2 1.4-1.4 1.4-2.5-.1-5-.1-7.6 0-.7 0-1-.2-1-1v-30c0-.8.2-1 1-1h7.9c.8 0 1 .3.9 1 .4 1.2.4 2.4.4 3.6zM170.2 47.5c0-9.8 6.7-16.3 16.6-16.3s16.6 6.7 16.5 16.5-6.8 16.4-16.8 16.3-16.6-7-16.3-16.5zm23 0c.1-1.4-.2-2.7-.7-4-.9-2.2-3-3.7-5.4-3.7-2.5-.3-4.9 1.1-6 3.4-1.4 2.6-1.5 5.7-.2 8.4 1.4 3.2 5.1 4.7 8.3 3.4.7-.3 1.3-.7 1.8-1.1 1.8-1.8 2.3-4 2.2-6.4zM218.1 36.7c1.6-2.4 3.9-4.1 6.6-4.9 7.4-2 14.2 1.6 15.5 9.9.2 2 .3 4.1.2 6.1v14.6c0 .9-.2 1.2-1.1 1.2-2.6-.1-5.1-.1-7.7 0-.9 0-1.1-.3-1.1-1.1v-16c.1-1.3-.2-2.6-.7-3.7-1.2-2.6-3.3-3.6-6.7-3.3-2.4.3-4.4 2.1-4.9 4.5-.2 1-.3 2-.3 3v15.5c0 .9-.3 1.2-1.1 1.1-2.6-.1-5.1 0-7.7 0-.7 0-1.1-.1-1-1v-30c0-.7.2-1 .9-1h8c.7 0 .9.2.9.9.2 1.4.2 2.8.2 4.2zM400.5 49.4h-10.1c-.5 0-1-.2-1 .7-.1 3.3 2.6 6 5.9 6.1.9 0 1.9-.2 2.7-.6 1.1-.5 2-1.4 2.5-2.5.2-.5.7-.9 1.3-.8h8.5c.9 0 1 .3.8 1-1.2 4.8-4.9 8.6-9.7 9.8-6.6 2-12.8 1-17.7-4.3-2.1-2.4-3.4-5.4-3.7-8.5-.5-4.2 0-8.3 2.2-12 1.3-2.1 3.1-3.9 5.3-5 5-2.7 11-2.8 16.2-.3 6.2 2.9 8.6 9 8 15.5-.1.8-.4 1-1.2 1-3.2-.2-6.6-.1-10-.1zm-4.8-4.1h5.4c.6 0 1-.1.9-.8 0-1.8-1-3.4-2.4-4.4-2.9-2-6.9-1.2-8.9 1.7-.5.8-.9 1.7-1 2.7-.1.8.1.9.8.9 1.6-.2 3.4-.1 5.2-.1zM353.4 52.8h3.8c.5-.1.9.3 1 .8 1 2.8 4.2 4.3 7 3.3.1 0 .1 0 .2-.1.9-.4 1.5-1.2 1.5-2.2.2-1-.4-2-1.3-2.5-1.9-.8-3.8-1.4-5.8-1.7-1.6-.4-3.2-.8-4.7-1.3-4-1.3-6.1-4-6.2-7.8-.2-3.9 2.1-7.6 5.8-8.9 4.3-1.7 9.1-1.7 13.3.1 4 1.6 6.4 4.8 7.4 9 .2.6 0 1-.7 1h-7.4c-.7 0-.9-.4-1.1-1-1-2.5-3.7-3.9-6.3-3.1-1.1.2-1.9 1.1-2 2.3-.1 1.1.5 2.1 1.6 2.4 2.3.8 4.6 1.5 7 2 2.5.7 5 1.3 7.1 3.1 3.7 3.1 3.8 10.3-1.1 13.5-3.3 2.1-6.9 2.5-10.7 2.2-3.3-.1-6.4-1.3-9-3.3-2.1-1.8-3.5-4.2-4-6.9-.1-.6 0-.9.7-.9h3.9zM246.9 47.5V32.8c0-.9.2-1.2 1.2-1.2 2.6.1 5.1 0 7.7 0 .8 0 1 .2 1 1v30c0 .7-.2 1-1 1H248c-.9 0-1.1-.3-1.1-1.2.1-5 0-9.9 0-14.9zM251.6 27.8c-2.3.1-4.4-1.2-5.3-3.3-.7-1.9-.2-4.1 1.3-5.5 2.3-1.8 5.4-2 7.9-.6 2.3 1.5 3 4.6 1.6 6.9-.2.3-.4.6-.6.8-1.4 1.2-3.1 1.8-4.9 1.7z"/><g id="Moniwyse_logo-2"><path id="Path_190686-2" class="st0" d="M51.4 74.1c4.3-6.4 3.7-13.1.9-19.8-.9-2.1-2-4.1-3.2-6l4.6-.3c2-.1 4-.3 5.9-.3.6 0 .7-.2.5-.7-.6-1.7-1.1-3.4-1.7-5.1-.2-.5-.2-.7.4-.7 3.2-.2 6.4-.5 9.5-.7.7 0 .8-.2.6-.9-.6-1.8-1.2-3.7-1.9-5.4-.1-.2-.3-.4-.2-.6H76c4.9 0 9.7.1 14.6.2.6 0 .8.2.9.8.9 7.4 1.1 14.9-1.8 21.9-5.6 14.1-15.8 22.8-31 24.9C38 84 19 69.4 16.3 48.6 13.6 27.9 28.2 8.9 49 6.2c5.6-.8 11.3-.2 16.7 1.5.2.1.5.1.8.4-1.6-.3-3-.6-4.6-.8C44.4 5.2 26.1 16 21.6 34.2 17.2 52.7 28.5 71.3 47 75.8c17.4 4.2 35.1-5.6 40.7-22.5 1.3-4.2 1.8-8.7 1.6-13.1 0-.8.3-1.8-.2-2.4s-1.6-.2-2.4-.2c-4.6-.1-9.1-.1-13.7-.2-.8 0-.7.3-.5.8 1.4 4.5 2 9.3 1.7 14.1-.5 8.8-5 16.8-12.2 21.8-.2.2-.4.4-.8.2 3.5-2.8 6.2-6.5 7.8-10.7 1.8-4.8 2.4-10 1.7-15.1-.1-1.2-.4-2.5-.5-3.7-.1-.4-.2-.5-.6-.5-2.3.2-4.5.3-6.8.4-.5 0-.4.2-.4.6.8 3.9 1.2 8 1.2 12 0 5.1-1.3 10.1-3.8 14.5-.6 1-1.2 1.9-2 2.7-.2.2-.3.5-.8.4 1.9-2.9 3.4-6.1 4.2-9.4 1-4.5 1-9.2 0-13.7-.1-.4-.3-.5-.7-.5-1.8.2-3.6.3-5.5.5.9 1.9 1.4 4 1.7 6.1.6 5.4-.9 10.8-4.2 15-.3.4-.7.8-1.2 1.2h.1z"/><path id="Path_190687-2" class="st0" d="M46.3 87.2c-18.1.2-32-7.1-41-23-11.5-21-3.7-47.4 17.4-58.9C30.4 1.1 39.2-.7 48 .2 23.9 2.5 6.3 23.9 8.6 47.9c1 9.9 5.3 19.2 12.2 26.3 6.8 7.1 15.8 11.6 25.5 13z"/></g></svg>