<svg id="Layer_1" xmlns="http://www.w3.org/2000/svg" viewBox="0 0 411.9 87.2"><style>.st0{fill:#0176fe}.st1{fill:#0276fe}.st2{fill:#0377fe}.st3{fill:#0076ff}</style><path class="st0" d="M328.7 51c2.2-6.1 4.4-12 6.5-17.9.2-1.1 1.2-1.8 2.2-1.6 2.6.1 5.3.1 7.9 0 1.1 0 1.3.1.8 1.2-5.3 12.4-10.6 24.9-15.8 37.3l-3.3 7.8c-.1.3-.2.8-.8.8h-10.4c1.1-2.4 2.1-4.7 3.2-7 1.3-2.9 2.6-5.7 3.9-8.6.3-.4.3-1 .1-1.5-4.3-9.9-8.6-19.7-13-29.9-.5 1.8-.9 3.3-1.3 4.8-2.2 8.7-4.5 17.4-6.7 26.1-.2.7-.5.9-1.2.9h-9c-.8 0-1.1-.3-1.3-1l-5.1-18.9c-.1-.3-.2-.7-.4-1.3-1 3.5-1.8 6.7-2.7 9.9-1 3.5-1.9 6.9-2.8 10.4-.2.7-.4.9-1.1.9-3 0-5.9-.1-8.9 0-.7.1-1.4-.3-1.5-1v-.2c-2.3-9.2-4.7-18.3-7-27.5-.1-.7-.3-1.4-.5-2.1-.4-1-.2-1.3.9-1.3 2.5.1 5 .1 7.5 0 .8 0 1.1.1 1.2 1 1.2 6.8 2.5 13.6 3.8 20.4 0 .3.2.7.4.9.8-3.2 1.6-6.3 2.5-9.5 1-4 2.1-7.9 3.1-11.9.2-.6.4-.8 1-.8 2.9 0 5.8.1 8.6 0 .9 0 1.1.4 1.3 1.1 1.8 6.8 3.6 13.5 5.4 20.2.1.4.2.8.4 1.4.8-4.2 1.5-8.1 2.2-12 .6-3.2 1.2-6.4 1.7-9.7.1-.8.4-1.1 1.3-1.1 6 .1 12 .1 18 0 .7-.1 1.3.4 1.4 1.1 2.3 5.8 4.6 11.7 6.8 17.5.4.5.5.7.7 1.1zM121.2 36.3c4.1-7 16.7-7 20.6 1.2.5-.7 1-1.4 1.5-2 5.4-6.1 15.6-5.7 19.9.8 1.5 2.3 2.2 5 2.2 7.7.1 6.1 0 12.2 0 18.3 0 .8-.2 1.1-1.1 1.1-2.5-.1-5-.1-7.6 0-.9 0-1.2-.2-1.2-1.2.1-5.5.1-11 0-16.5-.1-3.9-2.4-6.1-6-6.1s-6.1 2.5-6.2 6.3v16.3c0 1-.3 1.2-1.2 1.2-2.5-.1-5-.1-7.4 0-1.1.1-1.3-.3-1.3-1.3.1-5.4 0-10.8 0-16.2 0-3.4-1.7-5.7-4.7-6.2-4.2-.8-7.5 1.8-7.6 6-.1 5.5-.1 10.9 0 16.4 0 1-.2 1.3-1.2 1.3-2.6-.1-5.1-.1-7.7 0-.8 0-1-.3-1-1v-30c0-.8.2-1 1-1h7.9c.7 0 1 .2 1 1 0 1.4.1 2.7.1 3.9zM203.3 47.7c0 10.4-7.6 16.9-18 16.2-3.8-.1-7.5-1.6-10.3-4.2-4.3-4-5.3-9.1-4.7-14.7.4-5 3.3-9.4 7.7-11.7 6.3-3.4 15-2.6 20.2 2 3.7 3.3 5.1 7.6 5.1 12.4zm-10.1-.1V46c-.3-3.3-2.6-5.9-5.5-6.2-3.1-.5-6.1 1.4-7 4.5-.7 2.2-.7 4.5 0 6.7 1.1 3.3 4.8 5.1 8.1 4 1.1-.4 2.1-1.1 2.9-2 1.1-1.6 1.7-3.5 1.5-5.4zM218.2 37.1c2.2-4 6.6-6.3 11.1-5.8 6 .3 10 4 11 10 .2 1.1.3 2.2.3 3.3v17.9c0 .9-.2 1.2-1.1 1.1-2.5-.1-5-.1-7.4 0-1 0-1.4-.2-1.3-1.3.1-5.5 0-11 0-16.4 0-3.4-1.7-5.7-4.6-6.3-4.4-.9-7.9 1.8-7.9 6.4v16.4c0 .9-.2 1.2-1.1 1.2-2.6-.1-5.2-.1-7.8 0-.8 0-.9-.2-.9-.9V32.6c0-.7.2-1 .9-1 2.7.1 5.3.1 8 0 .8 0 .9.3.9 1-.2 1.4-.1 2.8-.1 4.5z"/><path class="st1" d="M400.6 49.4h-10.1c-.9 0-1.1.3-.9 1.1.7 4.2 3.4 6.2 7.4 5.4 1.7-.3 3.1-1.4 3.7-2.9.2-.6.7-.9 1.3-.8h8.4c.8 0 1 .2.8 1-1 3.6-3.3 6.7-6.6 8.6-6.1 3.6-14.8 2.8-19.8-1.8-1.9-1.7-3.3-4-4-6.4-1.2-3.8-1.2-7.9 0-11.8 1.3-4.9 5.3-8.7 10.3-9.8 6-1.5 11.6-.8 16.3 3.6 3.8 3.5 4.8 8.1 4.4 13.1-.1.8-.5.8-1.1.8-3.4-.1-6.8-.1-10.1-.1zM396 39c-3.2-.1-5.9 2.2-6.3 5.3-.1.8 0 1 .8 1h10.6c.8 0 .9-.3.9-1-.2-3.1-2.9-5.5-6-5.3z"/><path class="st0" d="M353.4 52.9h4c.5 0 .8.2.9.7 1.1 2.9 4.2 4.3 7.1 3.3 1-.3 1.7-1.3 1.7-2.4.1-1.1-.6-2.2-1.6-2.5-2.5-.8-5-1.5-7.5-2-1.5-.3-2.9-.8-4.3-1.4-6.4-3.1-5.4-11.2-1.6-14.5 4.3-3.6 16.3-4.4 21.1 2.3 1.1 1.5 1.9 3.2 2.4 4.9.2.7.2 1.1-.8 1.1-2.5-.1-5 0-7.4 0-.5.1-.9-.2-1-.7-.8-2.4-3.3-3.8-5.8-3.4-1.3 0-2.5 1-2.6 2.4-.1 1.2.7 2.2 1.8 2.6 2.8 1.2 5.8 1.5 8.6 2.4 1.5.4 2.9 1 4.1 1.8 3.9 2.7 4.9 8.1 2.2 12-.6.9-1.4 1.6-2.3 2.2-3 2.1-6.5 2.5-10.1 2.3-2.8 0-5.6-.8-8.1-2.2-2.9-1.8-4.9-4.7-5.5-8-.1-.6 0-.9.7-.9h4z"/><path class="st1" d="M256.8 47.6v14.9c0 .9-.2 1.2-1.1 1.1-2.6-.1-5.2-.1-7.8 0-.7 0-.9-.2-.9-.9V32.6c0-.8.3-1 1-1 2.5 0 5.1.1 7.7 0 .9 0 1.1.2 1.1 1.1v14.9z"/><path class="st2" d="M251.9 27.7c-4.2 0-6.9-3.2-5.6-6.8.9-2.5 3.9-3.9 6.9-3.3s4.8 2.8 4.5 5.5-2.6 4.6-5.8 4.6z"/><g id="Moniwyse_logo"><path id="Path_190686" class="st3" d="M51.4 74.1c4.3-6.4 3.7-13.1.9-19.8-.9-2.1-2-4.1-3.2-6l4.6-.3c2-.1 4-.3 6-.3.6 0 .7-.2.5-.7-.6-1.7-1.1-3.4-1.7-5.1-.2-.5-.2-.7.4-.7 3.2-.2 6.4-.5 9.5-.7.7 0 .8-.2.6-.9-.6-1.8-1.2-3.7-2-5.4-.1-.2-.3-.4-.2-.6H76c4.9 0 9.7.1 14.6.2.6 0 .8.2.9.8.9 7.4 1 14.9-1.8 22-5.6 14.1-15.8 22.8-31 24.9C38 84 19 69.3 16.4 48.6c-2.7-20.7 12-39.7 32.7-42.4 5.6-.8 11.3-.2 16.7 1.5.3.1.5.1.8.4-1.6-.3-3-.6-4.6-.8-17.6-2-35.8 8.7-40.3 27-4.4 18.5 7 37 25.5 41.5 17.3 4.1 34.9-5.6 40.6-22.5 1.3-4.2 1.8-8.7 1.6-13.1 0-.8.3-1.8-.2-2.4s-1.6-.2-2.4-.2c-4.6-.1-9.1-.1-13.7-.2-.8 0-.7.3-.5.8 1.4 4.5 2 9.3 1.8 14.1-.5 8.8-5 16.8-12.3 21.8-.2.2-.4.4-.8.2 3.5-2.8 6.2-6.5 7.8-10.7 1.7-4.8 2.3-10 1.6-15.1-.1-1.2-.4-2.5-.5-3.7-.1-.4-.2-.5-.6-.5-2.3.2-4.5.3-6.8.4-.5 0-.5.2-.4.6.8 3.9 1.2 8 1.2 12 0 5.1-1.3 10.1-3.8 14.5-.6 1-1.2 1.9-2 2.7-.2.2-.3.5-.8.4 1.9-2.9 3.4-6.1 4.2-9.4 1-4.5 1-9.2 0-13.7-.1-.4-.3-.5-.7-.5-1.8.2-3.6.3-5.5.5.9 1.9 1.4 4 1.7 6.1.6 5.4-.9 10.8-4.2 15-.3.4-.7.8-1.1 1.2z"/><path id="Path_190687" class="st3" d="M46.3 87.2c-18.1.2-32-7.1-41-23-11.5-21-3.7-47.4 17.4-58.9C30.4 1.1 39.2-.7 48 .2 23.9 2.5 6.3 23.9 8.6 47.9c1 9.9 5.3 19.2 12.2 26.3 6.8 7.1 15.8 11.6 25.5 13z"/></g></svg>