<svg xmlns="http://www.w3.org/2000/svg" width="18" height="18" viewBox="0 0 18 18"><defs><clipPath id="a"><path fill="#fff" d="M0 9a9 9 0 1 1 18 0A9 9 0 0 1 0 9z"/></clipPath></defs><path fill="#fff" d="M0 9a9 9 0 1 1 18 0A9 9 0 0 1 0 9z"/><path fill="none" stroke="#43424b" stroke-miterlimit="20" stroke-width="3" d="M0 9a9 9 0 1 1 18 0A9 9 0 0 1 0 9z" clip-path="url(&quot;#a&quot;)"/><g><path fill="#43424b" d="M9.113 12.268c-.663-.02-1.21.438-1.231 1.158-.02.718.5 1.194 1.163 1.213.691.02 1.224-.423 1.246-1.143.02-.72-.485-1.208-1.178-1.229zm2.53-7.385c-.663-.478-1.496-.718-2.5-.718-.763 0-1.407.168-1.93.505-.83.528-1.272 1.423-1.325 2.686h1.924c0-.368.108-.722.322-1.064.215-.341.58-.511 1.093-.511.523 0 .883.138 1.079.415.197.277.296.584.296.92 0 .293-.147.562-.324.805a1.673 1.673 0 0 1-.385.392s-1.044.67-1.502 1.207c-.265.311-.289.779-.313 1.448 0 .048.017.147.184.147h1.496c.149 0 .18-.11.181-.16a1.75 1.75 0 0 1 .083-.509c.083-.266.313-.498.57-.698l.529-.364c.478-.374.86-.679 1.028-.919.287-.393.49-.878.49-1.455 0-.94-.333-1.647-.996-2.127z"/></g></svg>