<svg xmlns="http://www.w3.org/2000/svg" width="21" height="21" viewBox="0 0 21 21"><path fill="#a6a9b7" d="M10.357 14.268a3.893 3.893 0 0 1-3.892-3.891 3.893 3.893 0 0 1 3.892-3.892 3.893 3.893 0 0 1 3.89 3.892 3.893 3.893 0 0 1-3.89 3.891zm10.396-2.614V9.06l-3.1-1.292a6.97 6.97 0 0 0-.289-.71l1.252-3.116-1.835-1.834-3.088 1.272a7.232 7.232 0 0 0-.725-.3L11.654 0H9.06L7.777 3.07a7.824 7.824 0 0 0-.752.304L3.942 2.136 2.108 3.97l1.257 3.055a7.52 7.52 0 0 0-.315.77L0 9.1v2.594l3.053 1.272c.094.263.195.52.316.77l-1.233 3.076 1.834 1.834 3.063-1.262c.246.117.497.21.755.3l1.312 3.07h2.594l1.284-3.086a8.65 8.65 0 0 0 .722-.3l3.11 1.247 1.835-1.834-1.277-3.095c.109-.233.198-.47.284-.71l3.101-1.322z"/></svg>