<svg xmlns="http://www.w3.org/2000/svg" width="25" height="20" viewBox="0 0 25 20"><path fill="#fff" d="M11.1 11.235l-.112-1.312C9.363 9.3 7.97 9.297 7.97 9.297s-5.312 0-7.304 4.648c0 0 2.568 1.024 5.89 1.274 2.894-3.03 4.546-3.983 4.546-3.983zM9.99 7.71c-.2-.81-.311-1.737-.311-2.776 0-1.55.595-2.5 1.33-3.087C10.208.005 7.97 0 7.97 0S4.65 0 4.65 3.32c0 3.321 1.327 5.313 3.32 5.313.795 0 1.477-.33 2.018-.924zm5.807 3.676c2.419 0 4.03-2.42 4.03-6.452C19.828.9 15.798.9 15.798.9s-4.032 0-4.032 4.032 1.612 6.452 4.032 6.452zm0 .804s-6.452 0-8.87 5.645c0 0 4.04 1.612 8.87 1.612 4.83 0 8.869-1.612 8.869-1.612-2.42-5.645-8.87-5.645-8.87-5.645z"/></svg>