<svg xmlns="http://www.w3.org/2000/svg" width="24" height="20" viewBox="0 0 24 20"><path fill="#fff" d="M19.999 11.876a.625.625 0 1 1 0 1.25.625.625 0 0 1 0-1.25zm2.812-2.5c.57 0 .937.368.937.937v3.75c0 .57-.368.937-.937.937h-5c-.57 0-.937-.368-.937-.937v-3.125c0-.57.368-.937.937-.937h3.438V6.563c0-.219-.094-.312-.313-.312H1.875c-.505 0-.93-.16-1.25-.43v12.304c0 .77.48 1.25 1.25 1.25h19.061c.22 0 .313-.093.313-.312v-3.125a.313.313 0 0 1 .624 0v3.125c0 .569-.368.937-.937.937H1.875C.754 20 0 19.246 0 18.125V4.376c0-1.121.754-1.875 1.875-1.875h5c.015 0 .028.006.042.009L14.479.016a.312.312 0 1 1 .196.594L3.352 4.343a.312.312 0 0 1-.196-.593l1.891-.624H1.875c-.77 0-1.25.48-1.25 1.25s.48 1.25 1.25 1.25h19.061c.57 0 .937.368.937.937v3.75c0 .173-.14.313-.312.313h-3.75c-.22 0-.312.093-.312.312v3.125c0 .22.093.312.312.312h5c.22 0 .312-.093.312-.312v-3.75c0-.22-.093-.312-.312-.312a.313.313 0 0 1 0-.625zm-2.494-4.687a.312.312 0 0 1-.312-.313V3.335a.399.399 0 0 0-.399-.399h-1.468l.342 1.01a.312.312 0 1 1-.592.2l-.84-2.478-8.804 2.677a.312.312 0 0 1-.182-.598L17.155.983a.312.312 0 0 1 .387.198l.383 1.13h1.68c.564 0 1.023.46 1.023 1.025v1.04c0 .173-.14.313-.312.313z"/></svg>